<?xml version="1.0" encoding="UTF-8"?>
<svg id="Binero_x5F_group_x5F_lockup_x5F_linear" xmlns="http://www.w3.org/2000/svg" version="1.1" viewBox="0 0 527.35 152.79">
  <!-- Generator: Adobe Illustrator 29.8.3, SVG Export Plug-In . SVG Version: 2.1.1 Build 3)  -->
  <defs>
    <style>
      .st0 {
        fill: #fff;
      }
    </style>
  </defs>
  <g>
    <path class="st0" d="M70.11,4.18C31.86,4.18.77,34.8,0,72.86c-.02.79.62,1.44,1.42,1.44h14.7c.77,0,1.39-.62,1.41-1.39.73-28.4,23.99-51.2,52.57-51.2s51.84,22.8,52.57,51.2c.02.77.64,1.39,1.41,1.39h14.7c.79,0,1.43-.65,1.42-1.44-.77-38.06-31.86-68.68-70.1-68.68Z"/>
    <path class="st0" d="M103.72,74.3h-14.72c-.75,0-1.36.58-1.41,1.33-.68,9.06-8.24,16.2-17.48,16.2s-16.8-7.14-17.48-16.2c-.06-.75-.67-1.33-1.41-1.33h-14.72c-.81,0-1.45.67-1.42,1.48.77,18.68,16.16,33.58,35.03,33.58s34.26-14.91,35.03-33.58c.03-.8-.61-1.48-1.42-1.48Z"/>
    <g>
      <path class="st0" d="M175.31,4.99h18.71v43.72h47.86V4.99h18.76v103.28h-18.76v-43.87h-47.86v43.87h-18.71V4.99Z"/>
      <path class="st0" d="M273.33,9.93c0-5.5,4.74-9.93,10.59-9.93s10.54,4.44,10.54,9.93-4.74,9.88-10.54,9.88-10.59-4.44-10.59-9.88ZM274.75,30.81h18.26v77.46h-18.26V30.81Z"/>
      <path class="st0" d="M307.17,4.99h18.26v38.63h.76c2.77-5.6,8.47-13.82,22.14-13.82,17.9,0,31.97,14.02,31.97,39.84s-13.67,39.99-31.92,39.99c-13.31,0-19.32-7.92-22.19-13.57h-1.06v12.2h-17.95V4.99ZM343.28,94.66c12.05,0,18.41-10.59,18.41-25.11s-6.25-24.76-18.41-24.76-18.21,9.73-18.21,24.76,6.56,25.11,18.21,25.11Z"/>
      <path class="st0" d="M385.01,69.85c0-24,14.42-40.04,37.12-40.04s37.12,16.04,37.12,40.04-14.42,39.94-37.12,39.94-37.12-15.99-37.12-39.94ZM440.74,69.79c0-14.17-6.15-25.52-18.51-25.52s-18.71,11.35-18.71,25.52,6.15,25.37,18.71,25.37,18.51-11.2,18.51-25.37Z"/>
      <path class="st0" d="M491.74,59.41l15.89-28.59h19.32l-23.35,38.73,23.75,38.73h-19.21l-16.39-27.89-16.24,27.89h-19.37l23.6-38.73-23-38.73h19.37l15.63,28.59Z"/>
    </g>
  </g>
  <g>
    <path class="st0" d="M286.56,122.08h10.2c7.09,0,10.26,4.22,10.26,9.55s-3.17,9.61-10.2,9.61h-6.6v11.03h-3.66v-30.19ZM296.7,138c4.85,0,6.72-2.74,6.72-6.37s-1.87-6.31-6.78-6.31h-6.43v12.68h6.49Z"/>
    <path class="st0" d="M309.02,145.84c0-5.19,4.58-6.12,8.78-6.66,4.13-.53,5.84-.38,5.84-2.06v-.12c0-2.9-1.58-4.6-4.78-4.6s-5.13,1.77-5.9,3.42l-3.3-1.18c1.77-4.13,5.66-5.31,9.08-5.31,2.89,0,8.37.83,8.37,8.02v14.92h-3.48v-3.07h-.18c-.71,1.47-2.77,3.6-6.72,3.6-4.3,0-7.72-2.54-7.72-6.96ZM323.64,144.07v-3.18c-.59.71-4.54,1.12-6.01,1.3-2.71.35-5.13,1.18-5.13,3.83,0,2.42,2,3.66,4.78,3.66,4.13,0,6.37-2.77,6.37-5.6Z"/>
    <path class="st0" d="M331.49,129.62h3.36v3.42h.24c.83-2.24,3.18-3.77,5.9-3.77.52,0,1.43.03,1.83.06v3.54c-.24-.06-1.19-.24-2.12-.24-3.3,0-5.72,2.24-5.72,5.31v14.33h-3.48v-22.64Z"/>
    <path class="st0" d="M355.86,132.57h-4.83v13.21c0,2.95,1.47,3.42,3.01,3.42.77,0,1.24-.12,1.53-.18l.71,3.12c-.47.18-1.3.41-2.59.41-2.95,0-6.13-1.89-6.13-5.84v-14.15h-3.42v-2.95h3.42v-5.42h3.48v5.42h4.83v2.95Z"/>
    <path class="st0" d="M368.56,141.06c0-7.08,4.13-11.73,10.26-11.73s10.26,4.66,10.26,11.73-4.13,11.67-10.26,11.67-10.26-4.66-10.26-11.67ZM385.6,141.06c0-4.54-2.12-8.61-6.78-8.61s-6.78,4.07-6.78,8.61,2.12,8.55,6.78,8.55,6.78-4.01,6.78-8.55Z"/>
    <path class="st0" d="M401.86,132.57h-5.07v19.69h-3.48v-19.69h-3.66v-2.95h3.66v-3.12c0-3.89,3.12-5.84,6.37-5.84,1.71,0,2.77.35,3.3.59l-1,3.01c-.35-.12-.94-.35-1.95-.35-2.3,0-3.24,1.18-3.24,3.42v2.3h5.07v2.95Z"/>
    <path class="st0" d="M415.74,122.08h10.55c6.31,0,9.26,3.6,9.26,8.02,0,3.89-2.3,5.6-4.89,6.31v.29c2.77.18,6.07,2.77,6.07,7.55s-2.95,8.02-10.08,8.02h-10.91v-30.19ZM426.18,135.34c3.3,0,5.9-2.06,5.9-5.25,0-2.65-1.77-4.78-5.78-4.78h-6.9v10.02h6.78ZM426.65,149.02c4.78,0,6.6-2.12,6.6-4.78,0-3.07-2.48-5.72-6.43-5.72h-7.43v10.5h7.25Z"/>
    <path class="st0" d="M439.67,123.49c0-1.3,1.12-2.36,2.48-2.36s2.48,1.06,2.48,2.36-1.12,2.36-2.48,2.36-2.48-1.06-2.48-2.36ZM440.37,129.62h3.48v22.64h-3.48v-22.64Z"/>
    <path class="st0" d="M451.84,152.26h-3.48v-22.64h3.36v3.54h.29c1.06-2.3,3.18-3.83,6.6-3.83,4.58,0,7.66,2.77,7.66,8.55v14.39h-3.48v-14.15c0-3.55-1.96-5.66-5.19-5.66s-5.78,2.24-5.78,6.19v13.62Z"/>
    <path class="st0" d="M469.54,141.12c0-6.96,4.07-11.79,10.2-11.79,4.72,0,9.73,2.89,9.73,11.32v1.47h-16.43c.16,4.85,2.98,7.49,7.06,7.49,2.73,0,4.78-1.18,5.66-3.54l3.36.94c-1.06,3.42-4.42,5.72-9.02,5.72-6.54,0-10.55-4.66-10.55-11.62ZM485.93,139.12c0-3.83-2.42-6.66-6.19-6.66-3.98,0-6.47,3.14-6.71,6.66h12.9Z"/>
    <path class="st0" d="M492.81,129.62h3.36v3.42h.24c.83-2.24,3.18-3.77,5.9-3.77.52,0,1.43.03,1.83.06v3.54c-.24-.06-1.19-.24-2.12-.24-3.3,0-5.72,2.24-5.72,5.31v14.33h-3.48v-22.64Z"/>
    <path class="st0" d="M504.7,141.06c0-7.08,4.13-11.73,10.26-11.73s10.26,4.66,10.26,11.73-4.13,11.67-10.26,11.67-10.26-4.66-10.26-11.67ZM521.74,141.06c0-4.54-2.12-8.61-6.78-8.61s-6.78,4.07-6.78,8.61,2.12,8.55,6.78,8.55,6.78-4.01,6.78-8.55Z"/>
  </g>
</svg>